# xmcd
#
# Track frame offsets: 
#        150
#        9045
#        19762
#        31480
#        40050
#        53237
#        63865
#        73275
#        86102
#        98560
#        112162
#        123830
#        134985
#        147445
#        156442
#        167570
#        182315
#        193755
#        204372
#        214782
#
# Disc length: 3003 seconds
#
# Revision: 1
# Processed by: cddbd v1.5.2PL0 Copyright (c) Steve Scherf et al.
# Submitted via: ExactAudioCopy v1.1
#
DISCID=1d0bb914
DTITLE=Al Hirt - In A Blue Mood
DYEAR=1998
DGENRE=Jazz
TTITLE0=Java
TTITLE1=Orange Blossom Special
TTITLE2=Louisiana Man
TTITLE3=Oh Lonesome Me
TTITLE4=Break My Mind
TTITLE5=I Walk the Line
TTITLE6=When My Blue Moon Turns to Gold
TTITLE7=I Really Don't Want to Know
TTITLE8=Blue Eyes Crying in the Rain
TTITLE9=I'm So Lonely I Could Cry
TTITLE10=Faded Love
TTITLE11=Wandering Star
TTITLE12=There's A Coach Coming
TTITLE13=The First Thing You Know
TTITLE14=I'm On My Way
TTITLE15=I Talk to the Trees
TTITLE16=A Million Miles Away Behind the Door
TTITLE17=The Best Things Are Dirty
TTITLE18=Hand Me Down That Can of Beans
TTITLE19=Gold Fever
EXTD=YEAR: 1998
EXTT0=
EXTT1=
EXTT2=
EXTT3=
EXTT4=
EXTT5=
EXTT6=
EXTT7=
EXTT8=
EXTT9=
EXTT10=
EXTT11=
EXTT12=
EXTT13=
EXTT14=
EXTT15=
EXTT16=
EXTT17=
EXTT18=
EXTT19=
PLAYORDER=
